{
    "asset" : {
        "generator" : "Khronos glTF Blender I/O v1.6.16",
        "version" : "2.0"
    },
    "scene" : 0,
    "scenes" : [
        {
            "name" : "Scene",
            "nodes" : [
                1,
                2,
                3
            ]
        }
    ],
    "nodes" : [
        {
            "mesh" : 0,
            "name" : "Wall",
            "scale" : [
                1.0002048015594482,
                1,
                1.0000030994415283
            ]
        },
        {
            "children" : [
                0
            ],
            "name" : "House Wall South",
            "rotation" : [
                0,
                1,
                0,
                -4.371138828673793e-08
            ],
            "translation" : [
                0,
                0,
                1
            ]
        },
        {
            "name" : "House North Wall",
            "translation" : [
                0,
                0,
                -1
            ]
        },
        {
            "mesh" : 0,
            "name" : "Wall",
            "scale" : [
                1.0002048015594482,
                1,
                1.0000030994415283
            ]
        }
    ],
    "meshes" : [
        {
            "name" : "Cube.001",
            "primitives" : [
                {
                    "attributes" : {
                        "POSITION" : 0,
                        "NORMAL" : 1,
                        "TEXCOORD_0" : 2
                    },
                    "indices" : 3
                }
            ]
        }
    ],
    "accessors" : [
        {
            "bufferView" : 0,
            "componentType" : 5126,
            "count" : 134,
            "max" : [
                1.0001146793365479,
                1.5,
                0.10000000149011612
            ],
            "min" : [
                -1,
                -0.002719988813623786,
                -0.002032648306339979
            ],
            "type" : "VEC3"
        },
        {
            "bufferView" : 1,
            "componentType" : 5126,
            "count" : 134,
            "type" : "VEC3"
        },
        {
            "bufferView" : 2,
            "componentType" : 5126,
            "count" : 134,
            "type" : "VEC2"
        },
        {
            "bufferView" : 3,
            "componentType" : 5123,
            "count" : 192,
            "type" : "SCALAR"
        }
    ],
    "bufferViews" : [
        {
            "buffer" : 0,
            "byteLength" : 1608,
            "byteOffset" : 0
        },
        {
            "buffer" : 0,
            "byteLength" : 1608,
            "byteOffset" : 1608
        },
        {
            "buffer" : 0,
            "byteLength" : 1072,
            "byteOffset" : 3216
        },
        {
            "buffer" : 0,
            "byteLength" : 384,
            "byteOffset" : 4288
        }
    ],
    "buffers" : [
        {
            "byteLength" : 4672,
            "uri" : "data:application/octet-stream;base64,"
        }
    ]
}
