{
    "asset" : {
        "generator" : "Khronos glTF Blender I/O v1.6.16",
        "version" : "2.0"
    },
    "scene" : 0,
    "scenes" : [
        {
            "name" : "Scene",
            "nodes" : [
                1,
                3,
                5,
                7,
                9,
                11,
                12,
                13,
                14,
                15
            ]
        }
    ],
    "nodes" : [
        {
            "mesh" : 0,
            "name" : "Floor",
            "rotation" : [
                -1,
                0,
                0,
                4.331257628109597e-07
            ],
            "scale" : [
                1,
                -1,
                1
            ]
        },
        {
            "children" : [
                0
            ],
            "name" : "House Floor"
        },
        {
            "mesh" : 1,
            "name" : "Door",
            "scale" : [
                1.0002048015594482,
                1,
                1.0000030994415283
            ]
        },
        {
            "children" : [
                2
            ],
            "name" : "House Door East",
            "rotation" : [
                0,
                -0.7071068286895752,
                0,
                0.7071068286895752
            ],
            "translation" : [
                1,
                0,
                0
            ]
        },
        {
            "mesh" : 2,
            "name" : "Wall",
            "scale" : [
                1.0002048015594482,
                1,
                1.0000030994415283
            ]
        },
        {
            "children" : [
                4
            ],
            "name" : "House Wall South",
            "rotation" : [
                0,
                1,
                0,
                -4.371138828673793e-08
            ],
            "translation" : [
                0,
                0,
                1
            ]
        },
        {
            "mesh" : 2,
            "name" : "Wall",
            "scale" : [
                1.0002048015594482,
                1,
                1.0000030994415283
            ]
        },
        {
            "children" : [
                6
            ],
            "name" : "House North Wall",
            "translation" : [
                0,
                0,
                -1
            ]
        },
        {
            "mesh" : 2,
            "name" : "Wall",
            "scale" : [
                1.0002048015594482,
                1,
                1.0000030994415283
            ]
        },
        {
            "children" : [
                8
            ],
            "name" : "House West Wall",
            "rotation" : [
                0,
                0.7071068286895752,
                0,
                0.7071068286895752
            ],
            "translation" : [
                -1,
                0,
                0
            ]
        },
        {
            "mesh" : 3,
            "name" : "Roof",
            "rotation" : [
                -1,
                0,
                0,
                4.331257628109597e-07
            ],
            "scale" : [
                1,
                -1,
                1
            ]
        },
        {
            "children" : [
                10
            ],
            "name" : "House Roof",
            "translation" : [
                0,
                1.5,
                0
            ]
        },
        {
            "mesh" : 0,
            "name" : "Floor",
            "rotation" : [
                -1,
                0,
                0,
                4.331257628109597e-07
            ],
            "scale" : [
                1,
                -1,
                1
            ]
        },
        {
            "mesh" : 2,
            "name" : "Wall",
            "scale" : [
                1.0002048015594482,
                1,
                1.0000030994415283
            ]
        },
        {
            "mesh" : 1,
            "name" : "Door",
            "scale" : [
                1.0002048015594482,
                1,
                1.0000030994415283
            ]
        },
        {
            "mesh" : 3,
            "name" : "Roof",
            "rotation" : [
                -1,
                0,
                0,
                4.331257628109597e-07
            ],
            "scale" : [
                1,
                -1,
                1
            ]
        }
    ],
    "meshes" : [
        {
            "name" : "Floor",
            "primitives" : [
                {
                    "attributes" : {
                        "POSITION" : 0,
                        "NORMAL" : 1,
                        "TEXCOORD_0" : 2
                    },
                    "indices" : 3
                }
            ]
        },
        {
            "name" : "Cube.005",
            "primitives" : [
                {
                    "attributes" : {
                        "POSITION" : 4,
                        "NORMAL" : 5,
                        "TEXCOORD_0" : 6
                    },
                    "indices" : 7
                }
            ]
        },
        {
            "name" : "Cube.001",
            "primitives" : [
                {
                    "attributes" : {
                        "POSITION" : 8,
                        "NORMAL" : 9,
                        "TEXCOORD_0" : 10
                    },
                    "indices" : 11
                }
            ]
        },
        {
            "name" : "Floor.013",
            "primitives" : [
                {
                    "attributes" : {
                        "POSITION" : 12,
                        "NORMAL" : 13,
                        "TEXCOORD_0" : 14,
                        "COLOR_0" : 15
                    },
                    "indices" : 16
                }
            ]
        }
    ],
    "accessors" : [
        {
            "bufferView" : 0,
            "componentType" : 5126,
            "count" : 24,
            "max" : [
                1,
                0,
                1
            ],
            "min" : [
                -1,
                -0.10000000149011612,
                -1
            ],
            "type" : "VEC3"
        },
        {
            "bufferView" : 1,
            "componentType" : 5126,
            "count" : 24,
            "type" : "VEC3"
        },
        {
            "bufferView" : 2,
            "componentType" : 5126,
            "count" : 24,
            "type" : "VEC2"
        },
        {
            "bufferView" : 3,
            "componentType" : 5123,
            "count" : 36,
            "type" : "SCALAR"
        },
        {
            "bufferView" : 4,
            "componentType" : 5126,
            "count" : 123,
            "max" : [
                1.0001146793365479,
                1.5,
                0.10000000149011612
            ],
            "min" : [
                -1,
                -0.002719988813623786,
                -0.002032648306339979
            ],
            "type" : "VEC3"
        },
        {
            "bufferView" : 5,
            "componentType" : 5126,
            "count" : 123,
            "type" : "VEC3"
        },
        {
            "bufferView" : 6,
            "componentType" : 5126,
            "count" : 123,
            "type" : "VEC2"
        },
        {
            "bufferView" : 7,
            "componentType" : 5123,
            "count" : 192,
            "type" : "SCALAR"
        },
        {
            "bufferView" : 8,
            "componentType" : 5126,
            "count" : 134,
            "max" : [
                1.0001146793365479,
                1.5,
                0.10000000149011612
            ],
            "min" : [
                -1,
                -0.002719988813623786,
                -0.002032648306339979
            ],
            "type" : "VEC3"
        },
        {
            "bufferView" : 9,
            "componentType" : 5126,
            "count" : 134,
            "type" : "VEC3"
        },
        {
            "bufferView" : 10,
            "componentType" : 5126,
            "count" : 134,
            "type" : "VEC2"
        },
        {
            "bufferView" : 11,
            "componentType" : 5123,
            "count" : 192,
            "type" : "SCALAR"
        },
        {
            "bufferView" : 12,
            "componentType" : 5126,
            "count" : 16,
            "max" : [
                1,
                1,
                1
            ],
            "min" : [
                -1,
                0,
                -1
            ],
            "type" : "VEC3"
        },
        {
            "bufferView" : 13,
            "componentType" : 5126,
            "count" : 16,
            "type" : "VEC3"
        },
        {
            "bufferView" : 14,
            "componentType" : 5126,
            "count" : 16,
            "type" : "VEC2"
        },
        {
            "bufferView" : 15,
            "componentType" : 5123,
            "count" : 16,
            "normalized" : true,
            "type" : "VEC4"
        },
        {
            "bufferView" : 16,
            "componentType" : 5123,
            "count" : 18,
            "type" : "SCALAR"
        }
    ],
    "bufferViews" : [
        {
            "buffer" : 0,
            "byteLength" : 288,
            "byteOffset" : 0
        },
        {
            "buffer" : 0,
            "byteLength" : 288,
            "byteOffset" : 288
        },
        {
            "buffer" : 0,
            "byteLength" : 192,
            "byteOffset" : 576
        },
        {
            "buffer" : 0,
            "byteLength" : 72,
            "byteOffset" : 768
        },
        {
            "buffer" : 0,
            "byteLength" : 1476,
            "byteOffset" : 840
        },
        {
            "buffer" : 0,
            "byteLength" : 1476,
            "byteOffset" : 2316
        },
        {
            "buffer" : 0,
            "byteLength" : 984,
            "byteOffset" : 3792
        },
        {
            "buffer" : 0,
            "byteLength" : 384,
            "byteOffset" : 4776
        },
        {
            "buffer" : 0,
            "byteLength" : 1608,
            "byteOffset" : 5160
        },
        {
            "buffer" : 0,
            "byteLength" : 1608,
            "byteOffset" : 6768
        },
        {
            "buffer" : 0,
            "byteLength" : 1072,
            "byteOffset" : 8376
        },
        {
            "buffer" : 0,
            "byteLength" : 384,
            "byteOffset" : 9448
        },
        {
            "buffer" : 0,
            "byteLength" : 192,
            "byteOffset" : 9832
        },
        {
            "buffer" : 0,
            "byteLength" : 192,
            "byteOffset" : 10024
        },
        {
            "buffer" : 0,
            "byteLength" : 128,
            "byteOffset" : 10216
        },
        {
            "buffer" : 0,
            "byteLength" : 128,
            "byteOffset" : 10344
        },
        {
            "buffer" : 0,
            "byteLength" : 36,
            "byteOffset" : 10472
        }
    ],
    "buffers" : [
        {
            "byteLength" : 10508,
            "uri" : "data:application/octet-stream;base64,"
        }
    ]
}
