{
    "asset" : {
        "generator" : "Khronos glTF Blender I/O v1.6.16",
        "version" : "2.0"
    },
    "scene" : 0,
    "scenes" : [
        {
            "name" : "Scene",
            "nodes" : [
                0,
                1,
                2,
                3,
                5,
                7,
                9,
                11,
                13,
                15,
                22,
                29
            ]
        }
    ],
    "nodes" : [
        {
            "mesh" : 0,
            "name" : "Floor",
            "rotation" : [
                -1,
                0,
                0,
                4.331257628109597e-07
            ],
            "scale" : [
                1,
                -1,
                1
            ]
        },
        {
            "mesh" : 1,
            "name" : "Wall",
            "scale" : [
                1.0002048015594482,
                1,
                1.0000030994415283
            ]
        },
        {
            "mesh" : 2,
            "name" : "Door",
            "scale" : [
                1.0002048015594482,
                1,
                1.0000030994415283
            ]
        },
        {
            "mesh" : 3,
            "name" : "Roof",
            "rotation" : [
                -1,
                0,
                0,
                4.331257628109597e-07
            ],
            "scale" : [
                1,
                -1,
                1
            ]
        },
        {
            "mesh" : 0,
            "name" : "Floor",
            "rotation" : [
                -1,
                0,
                0,
                4.331257628109597e-07
            ],
            "scale" : [
                1,
                -1,
                1
            ]
        },
        {
            "children" : [
                4
            ],
            "name" : "House Floor"
        },
        {
            "mesh" : 2,
            "name" : "Door",
            "scale" : [
                1.0002048015594482,
                1,
                1.0000030994415283
            ]
        },
        {
            "children" : [
                6
            ],
            "name" : "North-Door",
            "rotation" : [
                0,
                -0.7071068286895752,
                0,
                0.7071068286895752
            ],
            "translation" : [
                1,
                0,
                0
            ]
        },
        {
            "mesh" : 1,
            "name" : "Wall",
            "scale" : [
                1.0002048015594482,
                1,
                1.0000030994415283
            ]
        },
        {
            "children" : [
                8
            ],
            "name" : "East Wall",
            "rotation" : [
                0,
                1,
                0,
                -4.371138828673793e-08
            ],
            "translation" : [
                0,
                0,
                1
            ]
        },
        {
            "mesh" : 1,
            "name" : "Wall",
            "scale" : [
                1.0002048015594482,
                1,
                1.0000030994415283
            ]
        },
        {
            "children" : [
                10
            ],
            "name" : "West Wall",
            "translation" : [
                0,
                0,
                -1
            ]
        },
        {
            "mesh" : 1,
            "name" : "Wall",
            "scale" : [
                1.0002048015594482,
                1,
                1.0000030994415283
            ]
        },
        {
            "children" : [
                12
            ],
            "name" : "South-Wall",
            "rotation" : [
                0,
                0.7071068286895752,
                0,
                0.7071068286895752
            ],
            "translation" : [
                -1,
                0,
                0
            ]
        },
        {
            "mesh" : 3,
            "name" : "Roof",
            "rotation" : [
                -1,
                0,
                0,
                4.331257628109597e-07
            ],
            "scale" : [
                1,
                -1,
                1
            ]
        },
        {
            "children" : [
                14
            ],
            "name" : "House Roof",
            "translation" : [
                0,
                1.5,
                0
            ]
        },
        {
            "children" : [
                4
            ],
            "name" : "House Floor"
        },
        {
            "children" : [
                6
            ],
            "name" : "North-Door",
            "rotation" : [
                0,
                -0.7071068286895752,
                0,
                0.7071068286895752
            ],
            "translation" : [
                1,
                0,
                0
            ]
        },
        {
            "children" : [
                8
            ],
            "name" : "East Wall",
            "rotation" : [
                0,
                1,
                0,
                -4.371138828673793e-08
            ],
            "translation" : [
                0,
                0,
                1
            ]
        },
        {
            "children" : [
                10
            ],
            "name" : "West Wall",
            "translation" : [
                0,
                0,
                -1
            ]
        },
        {
            "children" : [
                12
            ],
            "name" : "South-Wall",
            "rotation" : [
                0,
                0.7071068286895752,
                0,
                0.7071068286895752
            ],
            "translation" : [
                -1,
                0,
                0
            ]
        },
        {
            "children" : [
                14
            ],
            "name" : "House Roof",
            "translation" : [
                0,
                1.5,
                0
            ]
        },
        {
            "children" : [
                16,
                17,
                18,
                19,
                20,
                21
            ],
            "name" : "House 1",
            "rotation" : [
                0,
                -0.6787883043289185,
                0,
                0.7343340516090393
            ],
            "translation" : [
                -0.12206876277923584,
                0,
                -3.30111026763916
            ]
        },
        {
            "children" : [
                4
            ],
            "name" : "House Floor"
        },
        {
            "children" : [
                6
            ],
            "name" : "North-Door",
            "rotation" : [
                0,
                -0.7071068286895752,
                0,
                0.7071068286895752
            ],
            "translation" : [
                1,
                0,
                0
            ]
        },
        {
            "children" : [
                8
            ],
            "name" : "East Wall",
            "rotation" : [
                0,
                1,
                0,
                -4.371138828673793e-08
            ],
            "translation" : [
                0,
                0,
                1
            ]
        },
        {
            "children" : [
                10
            ],
            "name" : "West Wall",
            "translation" : [
                0,
                0,
                -1
            ]
        },
        {
            "children" : [
                12
            ],
            "name" : "South-Wall",
            "rotation" : [
                0,
                0.7071068286895752,
                0,
                0.7071068286895752
            ],
            "translation" : [
                -1,
                0,
                0
            ]
        },
        {
            "children" : [
                14
            ],
            "name" : "House Roof",
            "translation" : [
                0,
                1.5,
                0
            ]
        },
        {
            "children" : [
                23,
                24,
                25,
                26,
                27,
                28
            ],
            "name" : "House 2",
            "rotation" : [
                0,
                0.13160724937915802,
                0,
                0.991301953792572
            ],
            "scale" : [
                1.385055422782898,
                2.0771632194519043,
                1.675403356552124
            ],
            "translation" : [
                -3.6054229736328125,
                0,
                0.05579711124300957
            ]
        }
    ],
    "meshes" : [
        {
            "name" : "Floor",
            "primitives" : [
                {
                    "attributes" : {
                        "POSITION" : 0,
                        "NORMAL" : 1,
                        "TEXCOORD_0" : 2
                    },
                    "indices" : 3
                }
            ]
        },
        {
            "name" : "Cube.001",
            "primitives" : [
                {
                    "attributes" : {
                        "POSITION" : 4,
                        "NORMAL" : 5,
                        "TEXCOORD_0" : 6
                    },
                    "indices" : 7
                }
            ]
        },
        {
            "name" : "Cube.005",
            "primitives" : [
                {
                    "attributes" : {
                        "POSITION" : 8,
                        "NORMAL" : 9,
                        "TEXCOORD_0" : 10
                    },
                    "indices" : 11
                }
            ]
        },
        {
            "name" : "Floor.001",
            "primitives" : [
                {
                    "attributes" : {
                        "POSITION" : 12,
                        "NORMAL" : 13,
                        "TEXCOORD_0" : 14
                    },
                    "indices" : 15
                }
            ]
        }
    ],
    "accessors" : [
        {
            "bufferView" : 0,
            "componentType" : 5126,
            "count" : 24,
            "max" : [
                1,
                0,
                1
            ],
            "min" : [
                -1,
                -0.10000000149011612,
                -1
            ],
            "type" : "VEC3"
        },
        {
            "bufferView" : 1,
            "componentType" : 5126,
            "count" : 24,
            "type" : "VEC3"
        },
        {
            "bufferView" : 2,
            "componentType" : 5126,
            "count" : 24,
            "type" : "VEC2"
        },
        {
            "bufferView" : 3,
            "componentType" : 5123,
            "count" : 36,
            "type" : "SCALAR"
        },
        {
            "bufferView" : 4,
            "componentType" : 5126,
            "count" : 134,
            "max" : [
                1.0001146793365479,
                1.5,
                0.10000000149011612
            ],
            "min" : [
                -1,
                -0.002719988813623786,
                -0.002032648306339979
            ],
            "type" : "VEC3"
        },
        {
            "bufferView" : 5,
            "componentType" : 5126,
            "count" : 134,
            "type" : "VEC3"
        },
        {
            "bufferView" : 6,
            "componentType" : 5126,
            "count" : 134,
            "type" : "VEC2"
        },
        {
            "bufferView" : 7,
            "componentType" : 5123,
            "count" : 192,
            "type" : "SCALAR"
        },
        {
            "bufferView" : 8,
            "componentType" : 5126,
            "count" : 123,
            "max" : [
                1.0001146793365479,
                1.5,
                0.10000000149011612
            ],
            "min" : [
                -1,
                -0.002719988813623786,
                -0.002032648306339979
            ],
            "type" : "VEC3"
        },
        {
            "bufferView" : 9,
            "componentType" : 5126,
            "count" : 123,
            "type" : "VEC3"
        },
        {
            "bufferView" : 10,
            "componentType" : 5126,
            "count" : 123,
            "type" : "VEC2"
        },
        {
            "bufferView" : 11,
            "componentType" : 5123,
            "count" : 192,
            "type" : "SCALAR"
        },
        {
            "bufferView" : 12,
            "componentType" : 5126,
            "count" : 34,
            "max" : [
                1.0499999523162842,
                0.9157187938690186,
                1.0500009059906006
            ],
            "min" : [
                -1.0499999523162842,
                0,
                -1.0499999523162842
            ],
            "type" : "VEC3"
        },
        {
            "bufferView" : 13,
            "componentType" : 5126,
            "count" : 34,
            "type" : "VEC3"
        },
        {
            "bufferView" : 14,
            "componentType" : 5126,
            "count" : 34,
            "type" : "VEC2"
        },
        {
            "bufferView" : 15,
            "componentType" : 5123,
            "count" : 42,
            "type" : "SCALAR"
        }
    ],
    "bufferViews" : [
        {
            "buffer" : 0,
            "byteLength" : 288,
            "byteOffset" : 0
        },
        {
            "buffer" : 0,
            "byteLength" : 288,
            "byteOffset" : 288
        },
        {
            "buffer" : 0,
            "byteLength" : 192,
            "byteOffset" : 576
        },
        {
            "buffer" : 0,
            "byteLength" : 72,
            "byteOffset" : 768
        },
        {
            "buffer" : 0,
            "byteLength" : 1608,
            "byteOffset" : 840
        },
        {
            "buffer" : 0,
            "byteLength" : 1608,
            "byteOffset" : 2448
        },
        {
            "buffer" : 0,
            "byteLength" : 1072,
            "byteOffset" : 4056
        },
        {
            "buffer" : 0,
            "byteLength" : 384,
            "byteOffset" : 5128
        },
        {
            "buffer" : 0,
            "byteLength" : 1476,
            "byteOffset" : 5512
        },
        {
            "buffer" : 0,
            "byteLength" : 1476,
            "byteOffset" : 6988
        },
        {
            "buffer" : 0,
            "byteLength" : 984,
            "byteOffset" : 8464
        },
        {
            "buffer" : 0,
            "byteLength" : 384,
            "byteOffset" : 9448
        },
        {
            "buffer" : 0,
            "byteLength" : 408,
            "byteOffset" : 9832
        },
        {
            "buffer" : 0,
            "byteLength" : 408,
            "byteOffset" : 10240
        },
        {
            "buffer" : 0,
            "byteLength" : 272,
            "byteOffset" : 10648
        },
        {
            "buffer" : 0,
            "byteLength" : 84,
            "byteOffset" : 10920
        }
    ],
    "buffers" : [
        {
            "byteLength" : 11004,
            "uri" : "data:application/octet-stream;base64,"
        }
    ]
}
