{
    "asset" : {
        "generator" : "Khronos glTF Blender I/O v1.7.33",
        "version" : "2.0"
    },
    "scene" : 0,
    "scenes" : [
        {
            "name" : "Scene",
            "nodes" : [
                1,
                3,
                5,
                7,
                9,
                11,
                12,
                13,
                14,
                15
            ]
        }
    ],
    "nodes" : [
        {
            "mesh" : 0,
            "name" : "Floor",
            "rotation" : [
                -1,
                0,
                0,
                4.331257628109597e-07
            ],
            "scale" : [
                1,
                -1,
                1
            ]
        },
        {
            "children" : [
                0
            ],
            "name" : "House Floor"
        },
        {
            "mesh" : 1,
            "name" : "Door",
            "scale" : [
                1.0002048015594482,
                1,
                1.0000030994415283
            ]
        },
        {
            "children" : [
                2
            ],
            "name" : "House Door East",
            "rotation" : [
                0,
                -0.7071068286895752,
                0,
                0.7071068286895752
            ],
            "translation" : [
                1,
                0,
                0
            ]
        },
        {
            "mesh" : 2,
            "name" : "Wall",
            "scale" : [
                1.0002048015594482,
                1,
                1.0000030994415283
            ]
        },
        {
            "children" : [
                4
            ],
            "name" : "House Wall South",
            "rotation" : [
                0,
                1,
                0,
                -4.371138828673793e-08
            ],
            "translation" : [
                0,
                0,
                1
            ]
        },
        {
            "mesh" : 2,
            "name" : "Wall",
            "scale" : [
                1.0002048015594482,
                1,
                1.0000030994415283
            ]
        },
        {
            "children" : [
                6
            ],
            "name" : "House North Wall",
            "translation" : [
                0,
                0,
                -1
            ]
        },
        {
            "mesh" : 2,
            "name" : "Wall",
            "scale" : [
                1.0002048015594482,
                1,
                1.0000030994415283
            ]
        },
        {
            "children" : [
                8
            ],
            "name" : "House West Wall",
            "rotation" : [
                0,
                0.7071068286895752,
                0,
                0.7071068286895752
            ],
            "translation" : [
                -1,
                0,
                0
            ]
        },
        {
            "mesh" : 3,
            "name" : "Roof",
            "rotation" : [
                -1,
                0,
                0,
                4.331257628109597e-07
            ],
            "scale" : [
                1,
                -1,
                1
            ]
        },
        {
            "children" : [
                10
            ],
            "name" : "House Roof",
            "translation" : [
                0,
                1.5,
                0
            ]
        },
        {
            "mesh" : 0,
            "name" : "Floor",
            "rotation" : [
                -1,
                0,
                0,
                4.331257628109597e-07
            ],
            "scale" : [
                1,
                -1,
                1
            ]
        },
        {
            "mesh" : 2,
            "name" : "Wall",
            "scale" : [
                1.0002048015594482,
                1,
                1.0000030994415283
            ]
        },
        {
            "mesh" : 1,
            "name" : "Door",
            "scale" : [
                1.0002048015594482,
                1,
                1.0000030994415283
            ]
        },
        {
            "mesh" : 3,
            "name" : "Roof",
            "rotation" : [
                -1,
                0,
                0,
                4.331257628109597e-07
            ],
            "scale" : [
                1,
                -1,
                1
            ]
        }
    ],
    "materials" : [
        {
            "doubleSided" : true,
            "name" : "FloorMaterial",
            "pbrMetallicRoughness" : {
                "baseColorTexture" : {
                    "index" : 0
                },
                "metallicFactor" : 0,
                "roughnessFactor" : 0.5
            }
        }
    ],
    "meshes" : [
        {
            "name" : "Floor",
            "primitives" : [
                {
                    "attributes" : {
                        "POSITION" : 0,
                        "NORMAL" : 1,
                        "TEXCOORD_0" : 2
                    },
                    "indices" : 3,
                    "material" : 0
                }
            ]
        },
        {
            "name" : "Cube.005",
            "primitives" : [
                {
                    "attributes" : {
                        "POSITION" : 4,
                        "NORMAL" : 5,
                        "TEXCOORD_0" : 6
                    },
                    "indices" : 7
                }
            ]
        },
        {
            "name" : "Cube.001",
            "primitives" : [
                {
                    "attributes" : {
                        "POSITION" : 8,
                        "NORMAL" : 9,
                        "TEXCOORD_0" : 10
                    },
                    "indices" : 11
                }
            ]
        },
        {
            "name" : "Floor.013",
            "primitives" : [
                {
                    "attributes" : {
                        "POSITION" : 12,
                        "NORMAL" : 13,
                        "TEXCOORD_0" : 14,
                        "COLOR_0" : 15
                    },
                    "indices" : 16
                }
            ]
        }
    ],
    "textures" : [
        {
            "sampler" : 0,
            "source" : 0
        }
    ],
    "images" : [
        {
            "bufferView" : 4,
            "mimeType" : "image/png",
            "name" : "FloorTexture"
        }
    ],
    "accessors" : [
        {
            "bufferView" : 0,
            "componentType" : 5126,
            "count" : 25,
            "max" : [
                1,
                0,
                1
            ],
            "min" : [
                -1,
                -0.10000000149011612,
                -1
            ],
            "type" : "VEC3"
        },
        {
            "bufferView" : 1,
            "componentType" : 5126,
            "count" : 25,
            "type" : "VEC3"
        },
        {
            "bufferView" : 2,
            "componentType" : 5126,
            "count" : 25,
            "type" : "VEC2"
        },
        {
            "bufferView" : 3,
            "componentType" : 5123,
            "count" : 36,
            "type" : "SCALAR"
        },
        {
            "bufferView" : 5,
            "componentType" : 5126,
            "count" : 123,
            "max" : [
                1.0001146793365479,
                1.5,
                0.10000000149011612
            ],
            "min" : [
                -1,
                -0.002719988813623786,
                -0.002032648306339979
            ],
            "type" : "VEC3"
        },
        {
            "bufferView" : 6,
            "componentType" : 5126,
            "count" : 123,
            "type" : "VEC3"
        },
        {
            "bufferView" : 7,
            "componentType" : 5126,
            "count" : 123,
            "type" : "VEC2"
        },
        {
            "bufferView" : 8,
            "componentType" : 5123,
            "count" : 192,
            "type" : "SCALAR"
        },
        {
            "bufferView" : 9,
            "componentType" : 5126,
            "count" : 134,
            "max" : [
                1.0001146793365479,
                1.5,
                0.10000000149011612
            ],
            "min" : [
                -1,
                -0.002719988813623786,
                -0.002032648306339979
            ],
            "type" : "VEC3"
        },
        {
            "bufferView" : 10,
            "componentType" : 5126,
            "count" : 134,
            "type" : "VEC3"
        },
        {
            "bufferView" : 11,
            "componentType" : 5126,
            "count" : 134,
            "type" : "VEC2"
        },
        {
            "bufferView" : 12,
            "componentType" : 5123,
            "count" : 192,
            "type" : "SCALAR"
        },
        {
            "bufferView" : 13,
            "componentType" : 5126,
            "count" : 16,
            "max" : [
                1,
                1,
                1
            ],
            "min" : [
                -1,
                0,
                -1
            ],
            "type" : "VEC3"
        },
        {
            "bufferView" : 14,
            "componentType" : 5126,
            "count" : 16,
            "type" : "VEC3"
        },
        {
            "bufferView" : 15,
            "componentType" : 5126,
            "count" : 16,
            "type" : "VEC2"
        },
        {
            "bufferView" : 16,
            "componentType" : 5123,
            "count" : 16,
            "normalized" : true,
            "type" : "VEC4"
        },
        {
            "bufferView" : 17,
            "componentType" : 5123,
            "count" : 18,
            "type" : "SCALAR"
        }
    ],
    "bufferViews" : [
        {
            "buffer" : 0,
            "byteLength" : 300,
            "byteOffset" : 0
        },
        {
            "buffer" : 0,
            "byteLength" : 300,
            "byteOffset" : 300
        },
        {
            "buffer" : 0,
            "byteLength" : 200,
            "byteOffset" : 600
        },
        {
            "buffer" : 0,
            "byteLength" : 72,
            "byteOffset" : 800
        },
        {
            "buffer" : 0,
            "byteLength" : 627450,
            "byteOffset" : 872
        },
        {
            "buffer" : 0,
            "byteLength" : 1476,
            "byteOffset" : 628324
        },
        {
            "buffer" : 0,
            "byteLength" : 1476,
            "byteOffset" : 629800
        },
        {
            "buffer" : 0,
            "byteLength" : 984,
            "byteOffset" : 631276
        },
        {
            "buffer" : 0,
            "byteLength" : 384,
            "byteOffset" : 632260
        },
        {
            "buffer" : 0,
            "byteLength" : 1608,
            "byteOffset" : 632644
        },
        {
            "buffer" : 0,
            "byteLength" : 1608,
            "byteOffset" : 634252
        },
        {
            "buffer" : 0,
            "byteLength" : 1072,
            "byteOffset" : 635860
        },
        {
            "buffer" : 0,
            "byteLength" : 384,
            "byteOffset" : 636932
        },
        {
            "buffer" : 0,
            "byteLength" : 192,
            "byteOffset" : 637316
        },
        {
            "buffer" : 0,
            "byteLength" : 192,
            "byteOffset" : 637508
        },
        {
            "buffer" : 0,
            "byteLength" : 128,
            "byteOffset" : 637700
        },
        {
            "buffer" : 0,
            "byteLength" : 128,
            "byteOffset" : 637828
        },
        {
            "buffer" : 0,
            "byteLength" : 36,
            "byteOffset" : 637956
        }
    ],
    "samplers" : [
        {
            "magFilter" : 9729,
            "minFilter" : 9987
        }
    ],
    "buffers" : [
        {
            "byteLength" : 637992,
            "uri" : "data:application/octet-stream;base64,"
        }
    ]
}
